<svg width="200" height="201" viewBox="0 0 200 201" fill="none" xmlns="http://www.w3.org/2000/svg">
<path d="M189.282 90.3773H179.752C177.893 76.493 172.458 63.4174 163.91 52.2717L170.681 45.5059C174.86 41.4986 174.86 34.2889 170.681 30.282C166.671 26.1061 159.455 26.1057 155.445 30.282L148.647 37.0752C137.487 28.5918 124.41 23.2097 110.539 21.3906V11.696C110.539 5.76007 105.706 0.931152 99.7656 0.931152C93.825 0.931152 88.9923 5.76007 88.9923 11.696V21.4419C84.6884 22.0291 80.4288 22.9651 76.295 24.2337C74.744 24.7097 73.8724 26.3523 74.3491 27.9024C74.8259 29.4522 76.4686 30.3227 78.0207 29.8467C82.6321 28.4313 87.4131 27.4624 92.2313 26.9672C93.7298 26.8134 94.8686 25.5521 94.8686 24.047V11.696C95.1248 5.23827 104.377 5.17251 104.663 11.696V24.0094C104.663 25.5201 105.81 26.7844 107.315 26.9312C121.898 28.3561 135.629 34.0063 147.026 43.2715C148.194 44.2219 149.893 44.1343 150.958 43.0703L159.601 34.4341C161.51 32.5262 164.617 32.5262 166.526 34.4341C168.436 36.3421 168.436 39.4463 166.526 41.3542L157.904 49.9692C156.836 51.0363 156.752 52.7391 157.709 53.9064C167.041 65.2835 172.748 79.0112 174.214 93.606C174.364 95.1065 175.628 96.2487 177.137 96.2487H189.281C191.982 96.2487 194.178 98.4436 194.178 101.142C194.178 103.84 191.982 106.035 189.281 106.035H177.137C175.628 106.035 174.364 107.177 174.214 108.678C172.748 123.272 167.041 137.001 157.709 148.377C156.751 149.545 156.836 151.247 157.904 152.314L166.526 160.929C168.435 162.837 168.435 165.942 166.526 167.85C164.702 169.744 161.424 169.751 159.601 167.85L150.958 159.213C149.893 158.149 148.194 158.062 147.026 159.012C142.998 162.287 138.621 165.146 134.016 167.511C132.573 168.252 132.004 170.022 132.745 171.464C133.487 172.905 135.257 173.474 136.702 172.733C140.884 170.586 144.892 168.061 148.647 165.208L155.446 172.002C157.546 174.1 160.305 175.15 163.063 175.15C172.526 175.213 177.463 163.524 170.681 156.778L163.91 150.012C172.458 138.866 177.893 125.791 179.752 111.906H189.282C203.576 111.316 203.57 90.9661 189.282 90.3773Z" fill="#2A9D8F"/>
<path d="M106.499 116.78C105.402 117.235 104.688 118.308 104.688 119.497V162.052C104.688 162.895 105.048 163.698 105.679 164.256C106.308 164.815 107.154 165.075 107.982 164.971C119.422 163.554 130.315 159.056 139.484 151.963C140.151 151.446 140.565 150.666 140.619 149.823C140.673 148.979 140.362 148.152 139.766 147.555L109.697 117.417C108.858 116.576 107.595 116.325 106.499 116.78ZM110.557 126.598L133.188 149.282C126.37 153.962 118.652 157.149 110.557 158.629V126.598Z" fill="#2A9D8F"/>
<path d="M94.3093 37.6007C93.6721 37.042 92.8257 36.7841 91.9832 36.8932C80.5417 38.38 69.6589 42.9272 60.5117 50.0432C59.8449 50.5622 59.4329 51.3419 59.3806 52.1845C59.3284 53.027 59.6409 53.8515 60.2388 54.4486L90.279 84.4493C92.0831 86.2973 95.3499 84.9507 95.3122 82.3673V39.8138C95.3122 38.9662 94.947 38.1602 94.3093 37.6007ZM89.4153 75.258L66.8358 52.7082C73.6318 48.013 81.3315 44.7921 89.4153 43.2637V75.258Z" fill="#2A9D8F"/>
<path d="M123.496 171.533C118.314 173.251 112.921 174.394 107.465 174.928C105.966 175.075 104.822 176.34 104.822 177.85V190.165C104.822 192.864 102.633 195.059 99.9421 195.059C97.2511 195.059 95.0622 192.864 95.0622 190.165V177.814C95.0622 176.308 93.9269 175.047 92.434 174.893C77.9495 173.399 64.3234 167.702 53.0285 158.419C51.8643 157.462 50.1661 157.546 49.1018 158.614L40.3148 167.425C38.499 169.321 35.2291 169.325 33.4133 167.425C31.5211 165.601 31.5195 162.328 33.4133 160.504L42.2215 151.672C43.283 150.607 43.3696 148.91 42.4221 147.742C33.2224 136.404 27.5929 122.747 26.1422 108.248C25.9923 106.747 24.7328 105.605 23.229 105.605H10.7363C4.28695 105.346 4.23855 96.0986 10.7363 95.8175H23.229C24.7328 95.8175 25.9923 94.6751 26.1422 93.1746C27.5925 78.6751 33.222 65.0182 42.4221 53.6796C43.3696 52.5118 43.283 50.8151 42.2215 49.7503L33.4133 40.9176C32.4916 39.9933 31.9841 38.7645 31.9841 37.4573C31.9423 33.1788 37.2853 30.9074 40.3148 33.997L49.1018 42.8089C50.1661 43.8761 51.8639 43.9602 53.0285 43.0035C57.3162 39.4793 61.9963 36.4367 66.9387 33.9594C68.3851 33.2343 68.9719 31.4707 68.2489 30.0203C67.5259 28.5698 65.7671 27.9822 64.3207 28.7064C59.7788 30.9829 55.4423 33.7018 51.3986 36.807L44.4553 29.8445C40.4588 25.6685 33.2685 25.6681 29.2724 29.8449C25.1076 33.8517 25.1072 41.0629 29.2724 45.0697L36.2425 52.0597C27.8221 63.1587 22.4631 76.1587 20.6239 89.9452H10.7359C4.81594 89.9452 0 94.7746 0 100.711C0 106.648 4.81594 111.477 10.7359 111.477H20.6239C22.4631 125.263 27.8221 138.263 36.2425 149.362L29.2724 156.352C25.1076 160.359 25.1072 167.57 29.2724 171.577C33.2681 175.754 40.4592 175.754 44.4549 171.577L51.3978 164.615C62.4585 173.114 75.4326 178.538 89.2058 180.42V190.165C89.2058 196.102 94.0218 200.931 99.9417 200.931C105.862 200.931 110.678 196.102 110.678 190.165V180.469C115.661 179.812 120.58 178.685 125.334 177.109C126.869 176.6 127.703 174.939 127.195 173.399C126.687 171.86 125.032 171.024 123.496 171.533Z" fill="#2A9D8F"/>
<path d="M35.9671 108.941C37.4184 120.364 41.9287 131.245 49.0106 140.408C49.5294 141.08 50.313 141.496 51.1608 141.55C52.0034 141.605 52.8394 141.292 53.439 140.692L83.5159 110.656C85.3666 108.86 84.0233 105.58 81.4268 105.619H38.8984C37.1718 105.581 35.7094 107.234 35.9671 108.941ZM74.2936 111.52L51.7044 134.079C47.0405 127.278 43.8507 119.586 42.349 111.52H74.2936Z" fill="#2A9D8F"/>
<path d="M148.61 141.556C149.51 141.557 150.371 141.137 150.922 140.426C158.051 131.27 162.587 120.375 164.039 108.92C164.145 108.085 163.887 107.245 163.331 106.613C162.775 105.981 161.973 105.619 161.132 105.619H118.552C115.991 105.584 114.631 108.829 116.48 110.625L146.538 140.697C147.089 141.249 147.835 141.556 148.61 141.556ZM157.709 111.484C156.202 119.595 152.983 127.321 148.27 134.136L125.628 111.484H157.709Z" fill="#2A9D8F"/>
<path d="M89.0625 100.541C89.0625 106.356 93.9816 111.087 100.028 111.087C114.576 110.508 114.572 90.5709 100.028 89.9937C93.982 89.9937 89.0625 94.7248 89.0625 100.541ZM105.013 100.541C105.013 103.184 102.777 105.335 100.028 105.335C93.4158 105.071 93.4177 96.0088 100.028 95.7465C102.777 95.7465 105.013 97.8969 105.013 100.541Z" fill="#2A9D8F"/>
<path d="M38.8977 96.2429H81.4243C84.0057 96.2791 85.377 93.0123 83.5133 91.2062L53.4376 61.1706C52.8373 60.5707 52.0061 60.2563 51.1595 60.3126C50.3118 60.3669 49.5287 60.7827 49.0095 61.4543C41.9278 70.6174 37.4177 81.4986 35.9665 92.921C35.712 94.6268 37.1684 96.2831 38.8977 96.2429ZM51.7032 67.7837L74.2914 90.3419H42.3482C43.8498 82.2759 47.0395 74.5841 51.7032 67.7837Z" fill="#2A9D8F"/>
<path d="M60.5025 151.815C69.6524 158.93 80.5375 163.477 91.9819 164.963C93.6845 165.225 95.3542 163.77 95.3117 162.043V119.496C95.3483 116.925 92.0826 115.557 90.2773 117.415L60.2296 147.411C58.9862 148.598 59.1187 150.79 60.5025 151.815ZM89.4134 126.604V158.594C81.3275 157.065 73.6259 153.845 66.8282 149.151L89.4134 126.604Z" fill="#2A9D8F"/>
<path d="M164.033 92.9415C162.581 81.4867 158.045 70.5923 150.917 61.4361C150.401 60.773 149.625 60.3633 148.786 60.3113C147.95 60.262 147.127 60.5705 146.533 61.1648L116.477 91.2372C114.641 93.0236 115.974 96.2817 118.55 96.243H161.125C162.838 96.2813 164.289 94.6384 164.033 92.9415ZM125.625 90.3782L148.265 67.7259C152.978 74.5412 156.196 82.2672 157.703 90.3782H125.625Z" fill="#2A9D8F"/>
<path d="M139.492 49.9C130.321 42.8071 119.426 38.3086 107.983 36.8908C107.148 36.7876 106.309 37.0481 105.679 37.6062C105.049 38.1643 104.688 38.9671 104.688 39.8099V82.3683C104.653 84.9364 107.895 86.3048 109.698 84.4481L139.774 54.3084C141.016 53.1196 140.879 50.9206 139.492 49.9ZM110.559 75.2671V43.2342C118.656 44.7136 126.376 47.9014 133.196 52.5819L110.559 75.2671Z" fill="#2A9D8F"/>
</svg>
