<svg width="24" height="24" viewBox="0 0 24 24" fill="none" xmlns="http://www.w3.org/2000/svg">
<circle cx="12" cy="12" r="11" stroke="white" stroke-width="2"/>
<path d="M10.8756 13.6741C11.6929 14.4361 12.6818 15.0244 13.7729 15.3976L15.2489 14.3182C15.2927 14.2905 15.3446 14.2757 15.3977 14.2757C15.4508 14.2757 15.5027 14.2905 15.5465 14.3182L18.2871 15.941C18.3912 15.9985 18.4792 16.0774 18.5444 16.1715C18.6095 16.2657 18.65 16.3725 18.6625 16.4835C18.675 16.5944 18.6593 16.7066 18.6166 16.811C18.5739 16.9154 18.5053 17.0093 18.4163 17.0852L17.1321 18.251C16.9482 18.418 16.7222 18.5406 16.4742 18.6078C16.2262 18.675 15.964 18.6847 15.7109 18.636C13.1865 18.1569 10.8596 17.0347 8.99633 15.3976C7.17439 13.7444 5.91361 11.6407 5.36694 9.34185C5.31293 9.11287 5.32421 8.87496 5.39966 8.65116C5.47511 8.42736 5.61219 8.22528 5.79761 8.06448L7.12878 6.88426C7.21116 6.80647 7.31161 6.7468 7.42263 6.70974C7.53365 6.67268 7.65236 6.65918 7.76986 6.67026C7.88736 6.68134 8.00061 6.7167 8.10114 6.7737C8.20166 6.8307 8.28685 6.90786 8.35032 6.99941L10.1748 9.48578C10.2063 9.52482 10.2233 9.57212 10.2233 9.62071C10.2233 9.6693 10.2063 9.7166 10.1748 9.75564L8.97284 11.0834C9.39004 12.066 10.04 12.951 10.8756 13.6741Z" fill="white"/>
</svg>
