<svg width="134" height="201" viewBox="0 0 134 201" fill="none" xmlns="http://www.w3.org/2000/svg">
<path d="M133.588 63.6185C133.4 57.9785 128.556 53.3901 122.791 53.3901H118.608V50.1756C118.608 47.4435 116.384 45.2212 113.65 45.2212H102.291C99.5573 45.2212 97.3334 47.4435 97.3334 50.1756V53.3901H76.4387V35.6256H79.5025C82.2365 35.6256 84.4604 33.4033 84.4604 30.6712V19.3323C84.4604 16.6002 82.2361 14.3778 79.5025 14.3778H76.4387V11.7176C76.4321 2.33847 65.1802 -2.63587 58.4621 3.91038C56.3812 5.92293 55.2355 8.62457 55.2355 11.5168V14.3774H52.0248C49.2908 14.3774 47.0669 16.5998 47.0669 19.3319V30.6708C47.0669 33.4029 49.2912 35.6252 52.0248 35.6252H55.2355V53.3897H52.8026C51.1846 53.3897 49.8728 54.7015 49.8728 56.3195C49.8728 57.9375 51.1846 59.2493 52.8026 59.2493H58.1469C59.7649 59.2493 61.095 57.9192 61.095 56.3012V32.7142C61.095 31.0962 59.7649 29.7661 58.1469 29.7661H52.926V20.2374H58.1469C59.7649 20.2374 61.095 18.9072 61.095 17.2892V11.5172C61.0434 8.90895 63.3872 6.64561 66.0021 6.79132C68.526 6.8753 70.5792 9.08512 70.5792 11.718V17.2896C70.5792 18.9076 71.9093 20.2377 73.5273 20.2377H78.6009V29.7665H73.5269C71.9089 29.7665 70.5788 31.0966 70.5788 32.7146V56.3019C70.5788 57.9199 71.9089 59.2501 73.5269 59.2501H100.245C101.863 59.2501 103.193 57.9199 103.193 56.3019V51.0811H112.748V56.3019C112.748 57.9199 114.078 59.2501 115.696 59.2501H122.792C127.046 59.2329 129.361 64.2283 126.407 67.2608C125.504 68.1936 124.292 68.7077 122.993 68.7077H115.696C114.078 68.7077 112.748 70.0378 112.748 71.6558V76.6751H103.193V71.6558C103.193 70.0378 101.863 68.7077 100.245 68.7077H73.5269C71.9089 68.7077 70.5788 70.0378 70.5788 71.6558V142.468C70.7034 146.321 76.2957 146.369 76.4383 142.468V74.5672H97.333V77.5798C97.333 80.3119 99.5573 82.5346 102.291 82.5346H113.649C116.383 82.5346 118.607 80.3119 118.607 77.5798V74.5672H122.992C128.823 74.6938 133.91 69.4452 133.588 63.6185Z" fill="#2A9D8F"/>
<path d="M79.5021 165.427H76.4383V155.031C76.3059 151.157 70.7132 151.151 70.5788 155.031V168.338C70.5788 169.956 71.9089 171.287 73.5269 171.287H78.6005V180.815H73.5269C71.9089 180.815 70.5788 182.145 70.5788 183.763V190.346C70.5788 191.636 70.0671 192.842 69.1377 193.741C66.1091 196.693 61.0782 194.403 61.0946 190.145V183.763C61.0946 182.145 59.7645 180.815 58.1465 180.815H52.9256V171.287H58.1465C59.7645 171.287 61.0946 169.956 61.0946 168.338V71.6555C61.0946 70.0375 59.7645 68.7074 58.1465 68.7074H33.7525C32.1345 68.7074 30.8044 70.0375 30.8044 71.6555V76.6748H21.2486V71.6555C21.2486 70.0375 19.9185 68.7074 18.3005 68.7074H10.5988C9.29952 68.7074 8.08699 68.1937 7.18462 67.2605C4.23259 64.2284 6.54359 59.233 10.7999 59.2498H18.3005C19.9185 59.2498 21.2486 57.9197 21.2486 56.3016V51.0812H30.8044V56.302C30.8044 57.92 32.1345 59.2502 33.7525 59.2502H40.2831C44.1598 59.117 44.1621 53.5246 40.2831 53.3906H36.6639V50.1761C36.6639 47.444 34.4396 45.2217 31.7059 45.2217H20.3475C17.6134 45.2217 15.3895 47.444 15.3895 50.1761V53.3906H10.7999C1.4212 53.3969 -3.56995 64.6124 2.97319 71.3348C6.7307 75.1736 10.5421 74.5388 15.3895 74.5673V77.5799C15.3895 80.312 17.6138 82.5347 20.3475 82.5347H31.7059C34.44 82.5347 36.6639 80.312 36.6639 77.5799V74.5673H55.2351V165.427H52.0244C49.2904 165.427 47.0665 167.65 47.0665 170.382V181.721C47.0665 184.453 49.2908 186.675 52.0244 186.675H55.2351V190.145C55.2429 199.523 66.4873 204.498 73.2117 197.952C75.2926 195.94 76.4383 193.238 76.4383 190.346V186.676H79.5021C82.2361 186.676 84.46 184.453 84.46 181.721V170.382C84.46 167.65 82.2357 165.427 79.5021 165.427Z" fill="#2A9D8F"/>
</svg>
