<svg width="210" height="201" viewBox="0 0 210 201" fill="none" xmlns="http://www.w3.org/2000/svg">
<path d="M62.3121 200.931L62.0577 200.931C59.3882 200.917 56.6853 200.677 54.0207 200.219C50.1174 199.547 51.156 193.514 55.0593 194.181C57.3922 194.582 59.7562 194.792 62.0858 194.804L62.3117 194.805C72.9095 194.805 83.1981 190.868 91.2816 183.722C99.6735 176.302 104.933 166.041 106.092 154.827C106.875 147.248 106.533 141.301 104.983 135.546C104.676 133.497 105.527 132.22 107.536 131.713C119.969 129.946 130.766 119.522 138.64 110.659C147.151 101.08 160.014 86.6054 173.068 91.3668C179.479 93.7066 184.307 99.2661 187.03 107.445C192.389 123.548 189.02 149.251 179.672 163.573C174.627 171.302 166.747 175.906 157.485 176.535C147.785 177.191 137.331 173.465 129.499 166.805C131.889 173.218 135.736 180.209 141.829 184.506C149.35 189.81 157.298 191.591 165.453 189.798C175.909 187.498 186.106 179.274 192.73 167.799C203.85 148.536 206.15 122.297 198.59 100.953C193.261 85.9037 180.251 72.09 163.198 75.1507C152.285 77.1099 144.241 85.6823 135.724 94.7579C126.335 104.763 116.627 115.109 101.975 118.092C100.951 118.3 99.8932 117.972 99.1662 117.223C99.1074 117.163 92.9488 110.911 86.6162 109.68C84.0027 109.171 83.2712 105.658 85.4652 104.149C85.5175 104.112 91.4033 99.9608 94.6662 92.7918C102.044 76.5822 95.5623 55.3867 77.4699 50.4423C63.8151 46.7089 45.9939 51.5904 34.7386 61.8549L45.6831 72.6503C52.1693 67.389 63.2421 63.1843 71.4383 64.7812C83.4317 67.1166 85.7699 81.8611 80.2656 91.1601C76.7936 97.0263 70.6329 101.329 63.4214 103.045L65.68 118.71C82.7737 120.937 92.8528 136.603 91.1395 153.184C89.6267 167.826 76.9639 179.295 62.3117 179.295L62.2566 179.295C48.3559 179.941 35.1866 173.289 23.1055 159.526C17.1674 152.761 12.292 145.18 8.48063 138.236C11.0533 149.389 14.7557 159.119 19.5379 167.273C25.2264 176.971 32.3228 184.277 40.6293 188.987C44.0744 190.941 41.0524 196.269 37.6074 194.316C23.7855 186.479 6.04928 168.314 0.0458608 126.283C-0.623546 121.595 6.2249 119.445 8.21801 123.918C15.0183 139.18 33.8727 174.533 62.0315 173.172C62.1291 173.167 62.2292 173.167 62.3288 173.169C73.866 173.169 83.852 164.114 85.0462 152.555C86.5247 138.249 77.7223 125.463 62.8137 124.59C61.3609 124.505 60.1683 123.41 59.9608 121.97L56.9381 101.007C56.8478 99.1146 57.7259 97.9563 59.572 97.5323C66.2264 96.6607 71.9918 93.1124 74.9941 88.0401C78.3141 82.4305 78.007 72.3024 70.2674 70.7949C63.383 69.4536 52.3645 74.175 47.8323 78.9776C46.3946 80.2319 44.9349 80.258 43.4535 79.0561L28.2226 64.033C27.037 62.8633 27.0026 60.9608 28.1458 59.7499C40.6097 46.5427 62.5086 40.0005 79.0857 44.5332C100.797 50.4672 109.2 75.651 100.243 95.3305C98.2395 99.7317 95.4737 103.157 93.1779 105.503C97.2038 107.422 100.548 110.169 102.285 111.74C114.226 108.716 122.878 99.4956 131.257 90.5662C140.082 81.1627 149.206 71.4389 162.116 69.1216C171.636 67.4119 180.864 69.8665 188.805 76.2179C195.576 81.634 201.102 89.6922 204.366 98.9087C212.498 121.87 210.014 150.114 198.037 170.862C190.567 183.803 178.878 193.119 166.769 195.782C157.004 197.929 147.159 195.762 138.299 189.513C130.873 184.276 125.178 175.094 121.829 162.962C120.551 158.332 126.713 154.93 129.928 158.639C136.701 166.458 147.355 171.08 157.071 170.423C162.234 170.073 169.456 168.019 174.543 160.225C182.869 147.47 185.988 123.711 181.218 109.381C179.077 102.948 175.628 98.8233 170.969 97.1231C161.827 93.7883 150.63 106.39 143.221 114.729C134.582 124.453 124.4 133.398 111.627 137.044C112.748 142.597 112.915 148.414 112.187 155.457C110.87 168.204 104.887 179.872 95.3405 188.312C86.1355 196.449 74.4059 200.931 62.3121 200.931ZM62.2018 179.293H62.2141H62.2018ZM62.3301 179.29C62.3276 179.29 62.3252 179.291 62.3227 179.291C62.3252 179.291 62.3272 179.29 62.3301 179.29Z" fill="#2A9D8F"/>
<path d="M134.374 68.1175C134.305 68.1175 134.236 68.115 134.166 68.1101C120.67 67.1903 110.037 62.2476 102.564 53.4195C97.9144 47.927 95.3985 41.5626 93.2449 34.8174C92.2373 31.662 95.4859 28.7536 98.0177 31.1036C98.6099 31.6534 112.762 44.553 133.844 43.1811C137.796 42.9198 138.194 49.0375 134.242 49.2948C120.437 50.1909 109.228 45.5994 102.147 41.4886C103.34 44.0053 104.977 46.7879 107.24 49.4615C113.584 56.9552 122.747 61.1702 134.479 61.9911C144.872 61.9752 155.634 59.5937 166.512 54.907L160.384 41.1558C157.241 42.9296 154.051 44.4309 150.865 45.6341C147.159 47.0326 144.995 41.302 148.701 39.9027C152.535 38.4549 156.388 36.5247 160.153 34.1656C162.038 33.2703 163.513 33.72 164.577 35.5146L173.351 55.2051C174.032 56.7322 173.362 58.5232 171.847 59.2289C159.182 65.127 146.574 68.1175 134.374 68.1175Z" fill="#2A9D8F"/>
<path d="M127.653 37.072C126.88 37.072 126.107 36.7816 125.512 36.2004L110.968 21.9962C109.765 20.8212 109.735 18.8955 110.9 17.6824L126.087 1.87236C127.527 0.635652 128.982 0.617682 130.452 1.81845L145.278 16.5078C146.487 17.9585 146.487 19.4093 145.278 20.86L129.809 36.1849C129.212 36.7758 128.432 37.072 127.653 37.072ZM117.422 19.736L127.637 29.7122L138.769 18.6835L128.349 8.36017L117.422 19.736Z" fill="#2A9D8F"/>
</svg>
