<svg width="200" height="201" viewBox="0 0 200 201" fill="none" xmlns="http://www.w3.org/2000/svg">
<path d="M11.5614 50.4162C13.0298 51.099 14.7729 50.4628 15.4553 48.9947C23.2651 32.1099 35.9742 17.3443 51.4645 7.00884C52.3333 6.39678 53.4601 7.31878 53.0884 8.27556C30.7213 67.0556 65.8694 135.686 127.11 150.799C130.469 150.734 131.19 146.018 127.871 145.037C70.2933 129.988 37.5485 65.8506 58.5927 10.297C60.9451 4.08064 53.7224 -1.62762 48.2068 2.13464C31.827 13.0646 18.3995 28.6666 10.1399 46.5223C9.45706 47.9899 10.0934 49.7334 11.5614 50.4162Z" fill="#2A9D8F"/>
<path d="M197.814 144.432C195.912 142.032 192.828 141.167 189.959 142.228C173.961 148.149 156.558 149.964 139.63 147.478C138.028 147.243 136.54 148.351 136.304 149.953C136.069 151.555 137.177 153.043 138.779 153.279C156.676 155.908 175.078 153.988 191.994 147.727C192.634 147.491 193.036 147.842 193.219 148.073C193.401 148.303 193.651 148.773 193.277 149.339C189.535 154.985 185.198 160.297 180.386 165.129C124.019 222.14 26.0272 193.633 8.46394 115.588C4.26355 97.1717 5.16249 77.9805 11.0634 60.0901C11.5704 58.5525 10.7355 56.8953 9.19794 56.388C7.66232 55.8811 6.00319 56.7159 5.49588 58.2535C-7.47502 96.5205 2.97924 141.281 31.9395 169.582C79.3015 217.712 161.467 209.165 198.163 152.576C199.852 150.028 199.715 146.831 197.814 144.432Z" fill="#2A9D8F"/>
<path d="M109.796 73.5496C109.876 73.6278 109.912 73.7395 109.894 73.849L107.269 89.2126C106.367 94.2295 111.801 98.166 116.29 95.7432L129.989 88.5134C130.092 88.4591 130.214 88.4595 130.317 88.5134L144.015 95.7432C146.114 96.8528 148.626 96.682 150.562 95.2793C152.489 93.8824 153.437 91.5577 153.037 89.2126L150.412 73.849C150.393 73.7395 150.429 73.6278 150.51 73.5496L161.642 62.656C165.306 59.1408 163.238 52.7669 158.193 52.0833L142.841 49.8434C142.727 49.827 142.629 49.7559 142.579 49.6542L135.727 35.7152C134.675 33.5754 132.539 32.2461 130.153 32.2461C127.767 32.2461 125.631 33.5754 124.579 35.7152L117.726 49.6546C117.676 49.7566 117.579 49.8274 117.465 49.8438L102.112 52.0833C99.7586 52.4265 97.8399 54.0434 97.104 56.3029C96.3688 58.5604 96.9664 60.9945 98.6638 62.656L109.796 73.5496ZM102.678 58.1187C102.744 57.9159 102.894 57.894 102.958 57.8846L118.31 55.6451C120.336 55.35 122.085 54.0774 122.987 52.2412L129.84 38.3018C129.868 38.244 129.935 38.1087 130.152 38.1087C130.37 38.1087 130.437 38.244 130.465 38.3018L137.318 52.2416C138.221 54.0778 139.969 55.3504 141.995 55.6455L157.347 57.885C157.411 57.8944 157.561 57.9163 157.627 58.1191C157.692 58.3188 157.59 58.4185 157.541 58.4666L146.409 69.3601C144.954 70.784 144.29 72.8312 144.633 74.837L147.258 90.2007C147.269 90.2679 147.293 90.4082 147.121 90.5329C146.945 90.6611 146.809 90.5896 146.751 90.5591L133.053 83.3296C132.145 82.8501 131.149 82.6105 130.152 82.6105C129.156 82.6105 128.16 82.8501 127.252 83.3296L113.554 90.5595C113.496 90.5899 113.361 90.6615 113.184 90.5333C113.012 90.4086 113.036 90.2683 113.048 90.2011L115.673 74.8374C116.015 72.8316 115.351 70.7844 113.896 69.3605L102.764 58.467C102.715 58.4181 102.613 58.3184 102.678 58.1187Z" fill="#2A9D8F"/>
</svg>
