<svg width="177" height="201" viewBox="0 0 177 201" fill="none" xmlns="http://www.w3.org/2000/svg">
<path d="M88.0776 200.931C84.1366 200.931 80.4667 198.811 78.5002 195.397L56.019 156.462H11.0502C7.11431 156.462 3.44517 154.343 1.47446 150.932C-0.491162 147.519 -0.491163 143.284 1.4729 139.875L23.9565 100.931L1.47407 61.9897C-0.491162 58.5784 -0.491163 54.3425 1.4729 50.9335C3.44517 47.519 7.11431 45.3995 11.0506 45.3995H56.0194L78.5018 6.46201C80.4663 3.05147 84.1362 0.931152 88.0776 0.931152C92.019 0.931152 95.6889 3.05146 97.6553 6.46514L120.136 45.3999H139.43C141.048 45.3999 142.359 46.7116 142.359 48.3296C142.359 49.9476 141.048 51.2593 139.43 51.2593H118.445C117.398 51.2593 116.431 50.7011 115.908 49.7944L92.5795 9.39209C91.6545 7.78662 89.9299 6.79053 88.0776 6.79053C86.2253 6.79053 84.501 7.78662 83.5772 9.38975L60.2475 49.7944C59.7241 50.7011 58.7569 51.2593 57.7104 51.2593H11.0502C9.20024 51.2593 7.47524 52.2565 6.5479 53.8616C5.62524 55.4636 5.62525 57.4577 6.54946 59.0628L29.8764 99.4667C30.3999 100.373 30.3999 101.49 29.8764 102.396L6.54829 142.803C5.62524 144.405 5.62525 146.4 6.54946 148.004C7.47524 149.606 9.20024 150.603 11.0499 150.603H57.71C58.7565 150.603 59.7237 151.162 60.2471 152.068L83.5752 192.47C84.5003 194.076 86.2249 195.072 88.0768 195.072C89.9288 195.072 91.6538 194.076 92.5772 192.473L115.907 152.068C116.431 151.161 117.398 150.603 118.444 150.603H165.101C166.953 150.603 168.68 149.606 169.607 148.001C170.533 146.398 170.533 144.406 169.607 142.803L146.278 102.396C145.755 101.49 145.755 100.373 146.278 99.4663L169.607 59.0601C170.533 57.4565 170.533 55.4644 169.607 53.8612C168.68 52.2562 166.953 51.2589 165.101 51.2589H151.148C149.53 51.2589 148.218 49.9472 148.218 48.3292C148.218 46.7112 149.53 45.3995 151.148 45.3995H165.101C169.039 45.3995 172.71 47.5187 174.681 50.93C176.651 54.3409 176.651 58.5792 174.681 61.9897L152.199 100.931L174.682 139.873C176.651 143.283 176.651 147.521 174.681 150.932C172.71 154.343 169.04 156.463 165.101 156.463H120.137L97.6542 195.4C95.6885 198.811 92.0186 200.931 88.0776 200.931ZM88.0776 176.544C87.0307 176.544 86.0639 175.985 85.5405 175.079L73.9452 154.996C73.4217 154.089 73.4217 152.973 73.9452 152.066C74.4686 151.16 75.4354 150.601 76.4823 150.601H99.6725C100.719 150.601 101.686 151.16 102.21 152.066C102.733 152.973 102.733 154.089 102.21 154.996L90.6143 175.079C90.0913 175.985 89.1245 176.544 88.0776 176.544ZM81.5569 156.46L88.0776 167.755L94.5983 156.46H81.5569ZM151.023 140.202H127.833C126.786 140.202 125.819 139.644 125.296 138.737C124.772 137.831 124.772 136.714 125.296 135.808L136.891 115.724C137.414 114.818 138.381 114.259 139.428 114.259C140.475 114.259 141.442 114.818 141.965 115.724L153.56 135.808C154.084 136.714 154.084 137.831 153.56 138.737C153.037 139.644 152.069 140.202 151.023 140.202ZM132.907 134.343H145.949L139.428 123.048L132.907 134.343ZM48.3225 140.202H25.1319C24.085 140.202 23.1182 139.644 22.5948 138.737C22.0713 137.831 22.0713 136.714 22.5948 135.808L34.1901 115.724C34.7135 114.818 35.6807 114.259 36.7272 114.259C37.7741 114.259 38.7409 114.818 39.2643 115.724L50.8592 135.808C51.3827 136.714 51.3827 137.831 50.8592 138.737C50.3358 139.644 49.369 140.202 48.3225 140.202ZM30.2065 134.343H43.2479L36.7272 123.048L30.2065 134.343ZM109.058 140.201H67.0971C66.0506 140.201 65.0835 139.642 64.56 138.736L57.7436 126.931C56.9346 125.53 57.4147 123.738 58.8159 122.929C60.217 122.12 62.0088 122.6 62.8182 124.001L68.7885 134.341H107.367L126.66 100.931L107.367 67.5206H68.7885L49.496 100.931L57.0952 114.087C57.9045 115.488 57.4245 117.28 56.0237 118.089C54.6225 118.898 52.8307 118.419 52.0213 117.018L43.576 102.397C43.0526 101.49 43.0526 100.373 43.576 99.4663L64.5604 63.1265C65.0838 62.2202 66.051 61.6616 67.0975 61.6616H109.058C110.105 61.6616 111.072 62.2198 111.596 63.1265L132.58 99.4663C133.103 100.373 133.103 101.49 132.58 102.396L111.596 138.736C111.072 139.642 110.105 140.201 109.058 140.201ZM139.428 87.6026C138.381 87.6026 137.414 87.044 136.89 86.1378L125.295 66.0542C124.772 65.1479 124.772 64.0308 125.295 63.1245C125.819 62.2183 126.785 61.6597 127.832 61.6597H151.023C152.069 61.6597 153.036 62.2183 153.56 63.1245C154.083 64.0308 154.083 65.1479 153.56 66.0542L141.964 86.1378C141.441 87.0444 140.474 87.6026 139.428 87.6026ZM132.907 67.5194L139.428 78.814L145.948 67.5194H132.907ZM36.7276 87.6026C35.6811 87.6026 34.7139 87.044 34.1905 86.1378L22.5948 66.0546C22.0713 65.1483 22.0713 64.0312 22.5948 63.1249C23.1182 62.2187 24.085 61.6601 25.1319 61.6601H48.3221C49.369 61.6601 50.3358 62.2187 50.8592 63.1249C51.3827 64.0312 51.3827 65.1479 50.8592 66.0546L39.2643 86.1382C38.7413 87.0444 37.7741 87.6026 36.7276 87.6026ZM30.2065 67.5194L36.7272 78.814L43.2479 67.5194H30.2065ZM99.6729 51.2612H76.4827C75.4358 51.2612 74.469 50.7026 73.9456 49.7964C73.4221 48.8897 73.4221 47.7729 73.9456 46.8667L85.5409 26.7835C86.0643 25.8769 87.0311 25.3187 88.078 25.3187C89.1249 25.3187 90.0917 25.8769 90.6151 26.7835L102.21 46.8667C102.734 47.7729 102.734 48.8897 102.21 49.7964C101.687 50.7026 100.719 51.2612 99.6729 51.2612ZM81.5569 45.4019H94.5987L88.078 34.1077L81.5569 45.4019Z" fill="#2A9D8F"/>
</svg>
