<svg width="159" height="41" viewBox="0 0 159 41" fill="none" xmlns="http://www.w3.org/2000/svg">
<path d="M42.882 23.252V22.118C42.882 21.614 42.942 21.164 43.062 20.768C43.182 20.372 43.344 20.048 43.548 19.796C43.752 19.544 44.004 19.34 44.304 19.184C44.616 19.016 44.94 18.902 45.276 18.842C45.624 18.77 46.014 18.728 46.446 18.716C47.358 18.692 48.3 18.734 49.272 18.842C50.244 18.95 51 19.082 51.54 19.238V21.218C50.172 21.098 48.702 21.038 47.13 21.038C46.494 21.026 46.044 21.098 45.78 21.254C45.528 21.398 45.402 21.752 45.402 22.316V22.964C45.402 23.468 45.504 23.804 45.708 23.972C45.912 24.14 46.278 24.224 46.806 24.224H48.894C49.206 24.224 49.494 24.254 49.758 24.314C50.034 24.374 50.268 24.458 50.46 24.566C50.664 24.674 50.844 24.8 51 24.944C51.168 25.088 51.306 25.25 51.414 25.43C51.534 25.61 51.63 25.796 51.702 25.988C51.786 26.168 51.846 26.36 51.882 26.564C51.93 26.768 51.96 26.966 51.972 27.158C51.996 27.338 52.008 27.524 52.008 27.716V28.598C52.008 29.174 51.936 29.678 51.792 30.11C51.648 30.542 51.462 30.884 51.234 31.136C51.018 31.388 50.742 31.592 50.406 31.748C50.082 31.904 49.758 32.006 49.434 32.054C49.11 32.114 48.756 32.144 48.372 32.144C46.2 32.144 44.502 31.964 43.278 31.604V29.624C44.598 29.756 46.128 29.822 47.868 29.822C48.096 29.822 48.288 29.81 48.444 29.786C48.612 29.762 48.78 29.714 48.948 29.642C49.128 29.57 49.26 29.456 49.344 29.3C49.44 29.132 49.488 28.928 49.488 28.688V27.986C49.488 27.566 49.404 27.254 49.236 27.05C49.068 26.846 48.756 26.744 48.3 26.744H46.284C44.016 26.732 42.882 25.568 42.882 23.252ZM53.7692 32L58.2152 18.824H61.0772L65.3612 32H62.6792L61.7432 29.084H57.4232L56.4692 32H53.7692ZM58.0892 26.852H61.1492L59.6732 22.136L58.0892 26.852ZM67.2401 32V18.824H69.7601V32H67.2401ZM72.1922 32V18.824H74.7482L79.9682 27.338V18.824H82.4882V32H79.9682L74.7302 23.576V32H72.1922ZM84.4094 21.146V18.824H94.1474V21.146H90.4934V32H87.9734V21.146H84.4094ZM96.1413 29.444V18.824H98.6613V28.742C98.6613 28.97 98.6853 29.156 98.7333 29.3C98.7933 29.432 98.8893 29.522 99.0213 29.57C99.1653 29.618 99.2793 29.648 99.3633 29.66C99.4473 29.672 99.5853 29.678 99.7773 29.678H104.295V32H98.8773C97.0533 32 96.1413 31.148 96.1413 29.444ZM105.916 18.824H108.652L111.226 25.142L114.052 18.824H116.788L112.45 27.914V32H109.93V27.914L105.916 18.824Z" fill="white"/>
<path d="M106.506 5.95546C106.506 5.95545 106.505 5.95804 106.503 5.96323C106.504 5.95807 106.505 5.95547 106.506 5.95546ZM106.346 5.82673C106.423 5.90677 106.464 5.96426 106.485 6C106.464 6.03575 106.423 6.09323 106.346 6.17327C106.135 6.3942 105.749 6.67955 105.122 6.9974C103.872 7.63073 101.965 8.24445 99.4847 8.77594C94.5487 9.83366 87.659 10.5 80 10.5C72.341 10.5 65.4513 9.83366 60.5153 8.77594C58.035 8.24445 56.1284 7.63073 54.8783 6.9974C54.2509 6.67955 53.8646 6.3942 53.6537 6.17327C53.5772 6.09323 53.5365 6.03574 53.5154 6C53.5365 5.96426 53.5772 5.90677 53.6537 5.82673C53.8646 5.6058 54.2509 5.32045 54.8783 5.0026C56.1284 4.36927 58.035 3.75555 60.5153 3.22406C65.4513 2.16634 72.341 1.5 80 1.5C87.659 1.5 94.5487 2.16634 99.4847 3.22406C101.965 3.75555 103.872 4.36927 105.122 5.0026C105.749 5.32045 106.135 5.6058 106.346 5.82673ZM53.4944 5.95546C53.4946 5.95547 53.4956 5.95808 53.4967 5.96325C53.4947 5.95803 53.4942 5.95545 53.4944 5.95546ZM53.4944 6.04454C53.4942 6.04455 53.4947 6.04197 53.4967 6.03675C53.4956 6.04192 53.4946 6.04453 53.4944 6.04454ZM106.503 6.03679C106.505 6.04198 106.506 6.04455 106.506 6.04454C106.505 6.04453 106.504 6.04195 106.503 6.03679Z" stroke="white" stroke-width="3"/>
<rect width="40" height="4" rx="2" transform="matrix(-1 8.74228e-08 8.74228e-08 1 40 19)" fill="white"/>
<rect width="32" height="4" rx="2" transform="matrix(-1 8.74228e-08 8.74228e-08 1 40 24)" fill="white"/>
<rect width="24" height="4" rx="2" transform="matrix(-1 8.74228e-08 8.74228e-08 1 40 29)" fill="white"/>
<rect x="119" y="19" width="40" height="4" rx="2" fill="white"/>
<rect x="119" y="24" width="32" height="4" rx="2" fill="white"/>
<rect x="119" y="29" width="24" height="4" rx="2" fill="white"/>
</svg>
