<svg width="178" height="201" viewBox="0 0 178 201" fill="none" xmlns="http://www.w3.org/2000/svg">
<path d="M157.476 44.493C155.638 43.2106 153.178 43.4579 151.623 45.0801C150.067 46.7051 149.925 49.1782 151.287 50.9618C157.686 59.3411 160.51 69.7184 159.239 80.1758L159.213 80.3899C158.108 89.1031 153.669 97.218 146.712 103.24C145.482 104.305 145.348 106.166 146.413 107.396C147.478 108.627 149.339 108.761 150.569 107.696C158.626 100.721 163.772 91.2871 165.06 81.1223L165.089 80.8922C166.174 71.9668 164.66 63.0961 160.792 55.1821C168.621 63.7332 172.461 75.3516 171.026 87.1609C170.209 93.8809 167.219 104.255 163.289 110.244L163.296 110.248C162.532 111.399 157.709 118.768 124.811 169.035C124.786 169.072 124.712 169.185 124.534 169.197C124.412 169.205 124.313 169.163 124.234 169.071L106.282 148.371C106.282 148.371 137.464 119.619 139.657 117.62C140.86 116.523 140.946 114.66 139.85 113.457C138.753 112.254 136.889 112.169 135.687 113.265C132.147 116.492 91.6727 154.319 91.6727 154.319L91.8317 139.65C92.557 139.3 93.2395 138.831 93.8406 138.23L113.725 118.345C114.984 117.087 115.727 115.455 115.864 113.7C122.741 109.335 128.514 103.352 132.625 96.311C137.152 88.5578 139.544 79.6887 139.544 70.6621C139.544 53.2532 130.516 36.9301 115.864 27.6266C115.728 25.8712 114.984 24.2384 113.726 22.9798L93.8402 3.09502C90.9547 0.209864 86.2602 0.209864 83.3738 3.09502L63.4887 22.9805C62.1954 24.2743 61.4864 25.9317 61.3528 27.6262C50.6872 34.3829 42.977 44.7044 39.5618 56.8637C39.1216 58.4305 40.0352 60.0571 41.6016 60.4973C41.8684 60.5723 42.1364 60.6079 42.4001 60.6079C43.6872 60.6079 44.87 59.7575 45.2356 58.4571C48.1336 48.1368 54.5344 39.313 63.3887 33.3356C63.4235 33.3716 63.4532 33.4106 63.4887 33.4462L72.1664 42.1235C62.0426 47.9559 55.677 58.795 55.677 70.6629C55.677 82.5668 62.0352 93.3727 72.168 99.2008L63.4887 107.88C63.4536 107.915 63.4243 107.953 63.3903 107.989C51.095 99.6535 43.5633 85.6012 43.5633 70.6629C43.5633 69.0356 42.2442 67.7164 40.6169 67.7164C38.9891 67.7164 37.6704 69.0356 37.6704 70.6629C37.6704 79.6891 40.063 88.5578 44.5895 96.3106C48.7012 103.353 54.4754 109.337 61.3532 113.702C61.4875 115.396 62.1961 117.052 63.4891 118.345L83.3746 138.231C84.1262 138.982 85.002 139.533 85.9352 139.893L85.7762 154.549C85.7762 154.549 44.4274 115.919 41.3048 113.063C35.9958 108.209 30.604 103.331 30.5505 103.282C30.5344 103.268 30.5184 103.254 30.502 103.24C23.5458 97.218 19.1063 89.1028 18.0032 80.3985L17.9763 80.1809C16.7099 69.7641 19.5075 59.4219 25.8536 51.059C27.2173 49.2618 27.0716 46.7801 25.5067 45.1583C23.9345 43.5282 21.4466 43.2922 19.5915 44.5965C5.66299 54.3977 -1.71435 70.9797 0.339168 87.8719C1.2587 95.4402 4.52901 106.666 8.99892 113.477L9.00791 113.471C9.68721 114.529 13.1204 119.775 31.6325 148.059C32.5243 149.421 34.3508 149.802 35.7118 148.911C37.0735 148.019 37.4548 146.193 36.5637 144.831C25.7087 128.246 14.0173 110.383 13.9298 110.249C13.9286 110.247 13.9274 110.245 13.9263 110.244C9.99502 104.254 7.00596 93.8797 6.18955 87.1606C4.75518 75.3629 8.59541 63.7383 16.422 55.1852C12.5556 63.0997 11.0415 71.9692 12.1251 80.8821L12.156 81.1301C13.4419 91.2762 18.579 100.702 26.6212 107.674C33.9669 114.32 70.9317 148.371 70.9317 148.371L52.9801 169.072C52.9016 169.164 52.8012 169.205 52.6805 169.198C52.502 169.186 52.4282 169.073 52.404 169.036L43.8782 156.009C42.9868 154.647 41.1606 154.266 39.7989 155.157C38.4372 156.048 38.0559 157.875 38.9469 159.236L47.4727 172.262C48.5563 173.918 50.3098 174.944 52.2836 175.077C52.4286 175.087 52.5731 175.091 52.7169 175.091C54.5313 175.091 56.2309 174.318 57.4325 172.932L75.2117 152.43L84.4028 161.462L65.3571 180.178C65.1977 180.334 65.0618 180.506 64.9457 180.686C62.7598 182.832 61.4004 185.817 61.4004 189.114C61.4004 195.63 66.7012 200.931 73.2168 200.931C79.7325 200.931 85.0332 195.63 85.0332 189.114C85.0332 183.659 81.3164 179.058 76.2828 177.704L85.6242 168.525L85.5465 175.686C85.5289 177.313 86.8336 178.647 88.4613 178.664C88.4719 178.664 88.4828 178.664 88.4938 178.664C90.1059 178.664 91.4219 177.366 91.4395 175.75L91.5188 168.455L100.931 177.704C95.8977 179.058 92.1809 183.659 92.1809 189.115C92.1809 195.63 97.4816 200.931 103.997 200.931C110.513 200.931 115.813 195.63 115.813 189.115C115.813 185.817 114.454 182.832 112.268 180.687C112.152 180.507 112.016 180.335 111.857 180.178L92.8106 161.462L102.002 152.431L119.78 172.932C120.982 174.319 122.682 175.092 124.496 175.092C124.64 175.092 124.785 175.087 124.93 175.077C126.903 174.944 128.657 173.918 129.741 172.262C138.475 158.917 168.089 113.669 168.215 113.477C172.685 106.666 175.955 95.441 176.875 87.8719C178.938 70.9047 171.505 54.2829 157.476 44.493ZM79.1399 189.114C79.1399 192.38 76.4828 195.037 73.2168 195.037C69.9508 195.037 67.2938 192.38 67.2938 189.114C67.2938 185.848 69.9508 183.191 73.2168 183.191C76.4828 183.191 79.1399 185.848 79.1399 189.114ZM113.825 33.336C126.123 41.6715 133.651 55.7153 133.651 70.6629C133.651 85.6012 126.12 99.6535 113.824 107.989C113.79 107.953 113.76 107.915 113.725 107.88L105.046 99.2004C115.165 93.3656 121.537 82.5102 121.537 70.6629C121.537 58.7086 115.18 47.8809 105.062 42.1102L113.725 33.4465C113.761 33.411 113.791 33.3719 113.825 33.336ZM103.417 93.2836V48.0063C110.964 52.8942 115.644 61.3602 115.644 70.6625C115.644 79.8668 110.959 88.3395 103.417 93.2836ZM61.5704 70.6629C61.5704 61.4426 66.2524 52.9813 73.7977 48.0403V93.2914C66.2454 88.3559 61.5704 79.9125 61.5704 70.6629ZM89.6731 134.063C89.086 134.651 88.1289 134.651 87.5418 134.063L67.6563 114.178C67.0684 113.591 67.0684 112.634 67.6563 112.046L78.8282 100.875C79.175 100.528 79.4262 100.104 79.5653 99.6422C79.5992 99.5758 79.6383 99.5129 79.6676 99.443C79.9809 98.7012 79.691 42.534 79.691 42.534C79.691 41.7524 79.3805 41.0028 78.8282 40.4505L67.6563 29.2786C67.0684 28.6911 67.0684 27.7348 67.6563 27.1469L87.541 7.26181C87.8348 6.96806 88.2211 6.8208 88.6074 6.8208C88.9938 6.8208 89.3793 6.96767 89.6731 7.26142L109.559 27.1469C109.843 27.4317 110 27.8102 110 28.2126C110 28.313 109.99 28.4118 109.971 28.5083C109.971 28.5106 109.97 28.5126 109.969 28.5149C109.911 28.802 109.771 29.0661 109.558 29.2782L98.3867 40.4501C97.8344 41.0028 97.5238 41.752 97.5238 42.5336V42.87C97.5106 43.0325 97.5106 43.1942 97.5238 43.3547V98.791C97.5238 99.5727 97.8344 100.322 98.3867 100.875L109.559 112.046C109.843 112.331 110 112.71 110 113.112C110 113.514 109.843 113.893 109.558 114.178L89.6731 134.063ZM109.92 189.114C109.92 192.38 107.263 195.037 103.998 195.037C100.731 195.037 98.0746 192.38 98.0746 189.114C98.0746 185.848 100.732 183.191 103.998 183.191C107.264 183.191 109.92 185.848 109.92 189.114Z" fill="#2A9D8F"/>
</svg>
