<svg width="191" height="201" viewBox="0 0 191 201" fill="none" xmlns="http://www.w3.org/2000/svg">
<path d="M164.694 35.1197C161.832 39.5087 156.984 42.1286 151.726 42.1286H38.0322C32.7776 42.1286 27.9294 39.5087 25.0627 35.1205L7.19053 7.76467C15.2516 10.8082 23.5415 13.4566 31.8709 15.6478C33.4367 16.0597 35.0415 15.124 35.4542 13.5571C35.8665 11.9902 34.9305 10.3861 33.3635 9.97346C24.3903 7.61291 15.4644 4.70945 6.83263 1.34287C4.79555 0.548065 2.49954 1.15473 1.12154 2.8519C-0.253726 4.54595 -0.375372 6.91159 0.8184 8.73823L20.1511 38.3298C23.5572 43.5438 28.9909 46.9405 35.0603 47.7842V66.8372H21.3276C19.7071 66.8372 18.3941 68.1507 18.3941 69.7708V87.2369C18.3941 88.857 19.7071 90.1705 21.3276 90.1705H35.0599V154.168H32.2245C30.604 154.168 29.2909 155.481 29.2909 157.102V195.064H7.65325C6.03274 195.064 4.71967 196.377 4.71967 197.998C4.71967 199.618 6.03274 200.931 7.65325 200.931H182.43C186.251 200.818 186.377 195.228 182.43 195.064H160.793V157.102C160.793 155.481 159.48 154.168 157.859 154.168H155.879V90.1701H168.756C170.377 90.1701 171.69 88.8566 171.69 87.2365V69.7704C171.69 68.1503 170.377 66.8368 168.756 66.8368H155.879V47.5894C161.473 46.4914 166.428 43.2015 169.61 38.3248L189.288 8.63106C190.461 6.80441 190.325 4.44973 188.95 2.77094C187.568 1.08354 185.273 0.483135 183.238 1.27872C139.328 18.5278 90.938 22.5049 44.8534 12.7013C43.2689 12.3661 41.7113 13.378 41.3753 14.9629C41.0397 16.5478 42.052 18.105 43.6369 18.4409C89.957 28.2962 138.621 24.5569 182.908 7.69231L164.694 35.1197ZM132.491 72.704V84.3029H101.191C99.5705 84.3029 98.2575 85.6164 98.2575 87.2365C98.2575 88.8566 99.5705 90.1701 101.191 90.1701H132.491V154.168H129.655C128.035 154.168 126.722 155.481 126.722 157.101V195.064H63.3619V157.101C63.3619 155.481 62.0489 154.168 60.4284 154.168H58.4476V90.1701H89.5005C91.121 90.1701 92.4341 88.8566 92.4341 87.2365C92.4341 85.6164 91.121 84.3029 89.5005 84.3029H58.4476V72.704H132.491ZM58.4472 66.8368V47.9962H83.3478V66.8368H58.4472ZM132.491 66.8368H106.736V47.9962H132.491V66.8368ZM100.868 47.9962V66.8368H89.215V47.9962H100.868ZM24.2612 84.3029V72.704H35.0599V84.3029H24.2612ZM40.9271 47.9962H52.58V154.168H40.9271V47.9962ZM35.1581 195.064V160.035H57.4944V195.064H35.1581ZM132.589 195.064V160.035H154.925V195.064H132.589ZM138.358 154.168V47.9962H150.011V154.168H138.358ZM165.822 72.704V84.3029H155.878V72.704H165.822Z" fill="#2A9D8F"/>
</svg>
