<svg width="200" height="201" viewBox="0 0 200 201" fill="none" xmlns="http://www.w3.org/2000/svg">
<path d="M76.8341 192.194C56.9 187.151 38.8657 175.429 26.0529 159.189C12.8464 142.449 5.86548 122.304 5.86548 100.931C5.86548 94.9709 6.42548 89.0063 7.53174 83.2018C7.83539 81.6103 6.79169 80.0753 5.2002 79.7716C3.6087 79.4665 2.07367 80.5132 1.77155 82.1032C0.595093 88.2693 0 94.6032 0 100.931C0 123.635 7.4173 145.037 21.4493 162.822C35.0571 180.071 54.216 192.522 75.3952 197.881C75.6363 197.942 75.8774 197.971 76.1169 197.971C77.4277 197.971 78.6209 197.086 78.9566 195.757C79.3549 194.187 78.4042 192.592 76.8341 192.194Z" fill="#2A9D8F"/>
<path d="M170.711 30.2204C151.823 11.3331 126.71 0.931152 100 0.931152C99.8779 0.931152 99.7574 0.934204 99.6353 0.934204C99.1043 0.937256 98.5733 0.940308 98.0423 0.950989C97.6944 0.957092 97.348 0.969299 97.0016 0.97998C96.7026 0.989136 96.402 0.995239 96.1029 1.00592C95.6604 1.02271 95.2194 1.04559 94.7784 1.06848C94.5831 1.07916 94.3878 1.08679 94.1925 1.09747C93.6767 1.12646 93.161 1.16156 92.6452 1.19971C92.5339 1.20734 92.424 1.21344 92.3126 1.2226C91.7251 1.26685 91.1392 1.3172 90.5533 1.37061C90.5243 1.37366 90.4953 1.37671 90.4663 1.37823C73.4405 2.9743 57.3059 8.84741 43.1824 18.6298C43.1717 18.6359 43.1625 18.6436 43.1534 18.6497C42.1188 19.3638 41.1072 20.1023 40.097 20.85C40.0909 20.8546 40.0864 20.8591 40.0802 20.8637C25.2457 31.9691 13.855 46.8311 7.01903 64.0598C6.42089 65.5643 7.15636 67.2687 8.6624 67.8669C10.1684 68.465 11.8729 67.7296 12.4695 66.2235C17.0181 54.7611 23.7106 44.4126 32.1731 35.6373C31.8573 36.6779 31.5781 37.7292 31.3431 38.7882C29.1092 48.8666 29.6234 58.9817 32.8277 68.0393C36.2137 77.6081 42.4988 85.5778 51.0025 91.0862C66.1575 100.901 83.5922 102.613 100.453 104.268C113.371 105.536 126.73 106.849 138.539 111.905C148.494 116.169 155.98 123.085 160.19 131.91C164.331 140.592 165.247 150.928 162.837 161.806C161.652 167.165 159.232 172.321 155.833 176.741C139.754 188.637 120.37 195.066 100 195.066C98.1491 195.066 96.2738 195.011 94.429 194.904C92.807 194.805 91.4245 196.044 91.3315 197.661C91.2369 199.277 92.4713 200.664 94.0872 200.759C96.0464 200.873 98.0362 200.931 100 200.931C126.71 200.931 151.823 190.529 170.711 171.642C183.163 159.188 191.927 144.028 196.452 127.488C196.547 127.141 196.634 126.793 196.725 126.445C196.851 125.969 196.976 125.493 197.093 125.016C197.22 124.504 197.339 123.992 197.458 123.478C197.528 123.174 197.597 122.869 197.664 122.564C197.794 121.968 197.922 121.373 198.041 120.775C198.079 120.584 198.114 120.394 198.152 120.205C198.714 117.315 199.147 114.394 199.452 111.443C199.481 111.161 199.512 110.877 199.539 110.593C199.59 110.053 199.635 109.513 199.678 108.971C199.71 108.571 199.739 108.171 199.765 107.772C199.797 107.3 199.826 106.829 199.852 106.356C199.879 105.84 199.899 105.323 199.919 104.804C199.933 104.425 199.951 104.047 199.96 103.667C199.983 102.814 199.995 101.96 199.997 101.102C199.997 101.046 200 100.989 200 100.933C200 74.2206 189.598 49.1077 170.711 30.2204ZM194.133 101.102C194.127 104.761 193.921 108.419 193.494 112.053C192.186 123.18 188.925 133.876 183.801 143.859C179.591 152.062 174.136 159.655 167.712 166.312C168.039 165.242 168.323 164.162 168.564 163.073C174.141 137.896 163.521 116.224 140.848 106.514C128.206 101.099 114.387 99.744 101.025 98.4318C84.1186 96.7716 68.1488 95.2045 54.1916 86.1637C39.444 76.6102 32.8842 58.9451 37.0697 40.0577C38.2416 34.7721 40.6067 29.6848 43.9178 25.3208C44.1238 25.1667 44.3313 25.0156 44.5404 24.8646C58.0582 14.9998 74.2935 8.73907 91.0415 7.21625C91.0492 7.21472 91.0568 7.21472 91.066 7.21472C94.1284 6.91718 96.9711 6.79663 100 6.79663C125.145 6.79663 148.784 16.5882 166.563 34.3677C184.343 52.1473 194.135 75.7862 194.135 100.931C194.135 100.989 194.133 101.046 194.133 101.102Z" fill="#2A9D8F"/>
<path d="M100 37.2241C91.0187 37.2241 83.7128 44.53 83.7128 53.5114C83.7128 62.4927 91.0187 69.7986 100 69.7986C108.981 69.7986 116.287 62.4927 116.287 53.5114C116.287 44.53 108.981 37.2241 100 37.2241ZM100 63.9346C94.2535 63.9346 89.5782 59.2578 89.5782 53.5114C89.5782 47.7649 94.2535 43.0896 100 43.0896C105.746 43.0896 110.422 47.7649 110.422 53.5114C110.422 59.2578 105.746 63.9346 100 63.9346Z" fill="#2A9D8F"/>
<path d="M116.287 148.351C116.287 139.369 108.981 132.063 100 132.063C91.0187 132.063 83.7128 139.369 83.7128 148.351C83.7128 157.332 91.0187 164.638 100 164.638C108.981 164.638 116.287 157.332 116.287 148.351ZM89.5782 148.351C89.5782 142.604 94.2535 137.929 100 137.929C105.746 137.929 110.422 142.604 110.422 148.351C110.422 154.097 105.746 158.774 100 158.774C94.2535 158.774 89.5782 154.097 89.5782 148.351Z" fill="#2A9D8F"/>
</svg>
