<svg width="25" height="25" viewBox="0 0 25 25" fill="none" xmlns="http://www.w3.org/2000/svg">
<circle cx="12.5" cy="12.5" r="11.5" stroke="white" stroke-width="2"/>
<path d="M6.25317 9.28438L12.5008 12.4078L18.7485 9.28438C18.7254 8.88629 18.5509 8.5121 18.2609 8.23846C17.9708 7.96482 17.5871 7.81243 17.1884 7.8125H7.81333C7.41457 7.81243 7.03087 7.96482 6.74081 8.23846C6.45076 8.5121 6.2763 8.88629 6.25317 9.28438Z" fill="white"/>
<path d="M18.75 11.0293L12.5 14.1543L6.25 11.0293V15.6246C6.25 16.039 6.41462 16.4365 6.70765 16.7295C7.00067 17.0225 7.3981 17.1871 7.8125 17.1871H17.1875C17.6019 17.1871 17.9994 17.0225 18.2924 16.7295C18.5854 16.4365 18.75 16.039 18.75 15.6246V11.0293Z" fill="white"/>
</svg>
